HIERARCHY
ROOT Hips
{
	OFFSET 0.000000 0.000000 0.000000 
	CHANNELS 6 Xposition Yposition Zposition Zrotation Yrotation Xrotation
	JOINT LeftUpLeg
	{
		OFFSET 1.363060 -1.794630 0.839290 
		CHANNELS 3 Zrotation Yrotation Xrotation
		JOINT LeftLeg
		{
			OFFSET 2.448110 -6.726130 0.000000 
			CHANNELS 3 Zrotation Yrotation Xrotation
			JOINT LeftFoot
			{
				OFFSET 2.562200 -7.039590 0.000000 
				CHANNELS 3 Zrotation Yrotation Xrotation
				JOINT LeftToeBase
				{
					OFFSET 0.157640 -0.433110 2.322550 
					CHANNELS 3 Zrotation Yrotation Xrotation
					End Site
					{
						OFFSET 0.000000 0.000000 0.000000 
					}
				}
			}
		}
	}
	JOINT RightUpLeg
	{
		OFFSET -1.305520 -1.794630 0.839290 
		CHANNELS 3 Zrotation Yrotation Xrotation
		JOINT RightLeg
		{
			OFFSET -2.542530 -6.985550 0.000000 
			CHANNELS 3 Zrotation Yrotation Xrotation
			JOINT RightFoot
			{
				OFFSET -2.568260 -7.056230 0.000000 
				CHANNELS 3 Zrotation Yrotation Xrotation
				JOINT RightToeBase
				{
					OFFSET -0.164730 -0.452590 2.363150 
					CHANNELS 3 Zrotation Yrotation Xrotation
					End Site
					{
						OFFSET 0.000000 0.000000 0.000000 
					}
				}
			}
		}
	}
	JOINT Spine
	{
		OFFSET 0.028270 2.035590 -0.193380 
		CHANNELS 3 Zrotation Yrotation Xrotation
		JOINT Spine1
		{
			OFFSET 0.056720 2.048850 -0.042750 
			CHANNELS 3 Zrotation Yrotation Xrotation
			JOINT Neck1
			{
				OFFSET -0.054170 1.746240 0.172020 
				CHANNELS 3 Zrotation Yrotation Xrotation
				JOINT Head
				{
					OFFSET 0.104070 1.761360 -0.123970 
					CHANNELS 3 Zrotation Yrotation Xrotation
					End Site
					{
						OFFSET 0.000000 0.000000 0.000000 
					}
				}
			}
			JOINT LeftArm
			{
				OFFSET 3.362410 1.200890 -0.311210 
				CHANNELS 3 Zrotation Yrotation Xrotation
				JOINT LeftForeArm
				{
					OFFSET 4.983000 -0.000000 -0.000000 
					CHANNELS 3 Zrotation Yrotation Xrotation
					JOINT LeftHand
					{
						OFFSET 3.483560 -0.000000 -0.000000 
						CHANNELS 3 Zrotation Yrotation Xrotation
						JOINT LeftHandIndex1
						{
							OFFSET 0.715260 -0.000000 -0.000000 
							CHANNELS 3 Zrotation Yrotation Xrotation
							End Site
							{
								OFFSET 0.000000 0.000000 0.000000 
							}
						}
					}
				}
			}
			JOINT RightArm
			{
				OFFSET -3.136600 1.374050 -0.404650 
				CHANNELS 3 Zrotation Yrotation Xrotation
				JOINT RightForeArm
				{
					OFFSET -5.241900 -0.000000 -0.000000 
					CHANNELS 3 Zrotation Yrotation Xrotation
					JOINT RightHand
					{
						OFFSET -3.444170 -0.000000 -0.000000 
						CHANNELS 3 Zrotation Yrotation Xrotation
						JOINT RightHandIndex1
						{
							OFFSET -0.622530 -0.000000 -0.000000 
							CHANNELS 3 Zrotation Yrotation Xrotation
							End Site
							{
								OFFSET 0.000000 0.000000 0.000000 
							}
						}
					}
				}
			}
		}
	}
}
MOTION
Frames: 12
Frame Time: 0.041667
4.525714 12.040238 7.761784 -2.164109 -2.930687 56.240170 -17.187154 1.086045 -16.868242 15.498680 21.091275 76.677763 -0.280302 4.759231 13.223425 0.023800 0.996700 2.739800 15.312464 -0.373959 -18.948120 -16.954005 -21.065363 81.175899 0.177004 -2.155436 -1.433746 -0.188200 2.794300 -7.706500 0.350900 -0.368606 -3.158347 -0.817445 -0.158495 -8.146185 15.333961 -6.254340 -14.030115 6.017100 -2.780600 2.963500 -36.467048 -39.572046 51.750122 145.261060 -38.678254 -106.939698 2.253030 -0.316430 -10.310731 -7.125000 0.000000 0.000000 24.962656 37.232411 52.711299 -146.585767 37.488326 -107.304431 -3.321526 0.335141 -24.758747 7.125000 0.000000 0.000000 
4.526427 12.044004 7.778988 -2.150929 -2.969008 56.099889 -17.155393 1.184976 -17.301940 15.872500 21.164311 77.733763 -0.295916 4.757772 13.008280 0.026300 1.046700 2.877300 15.062146 -0.617234 -19.339540 -17.312141 -21.094890 82.189192 0.155369 -1.888920 -1.514236 -0.197800 2.864200 -7.900900 0.352769 -0.406963 -3.202675 -0.767452 -0.174337 -8.317668 15.267985 -6.261151 -13.993613 5.964400 -2.781400 3.037600 -36.746585 -39.942930 51.586678 145.578364 -38.345105 -107.145748 2.281323 -0.348448 -9.694753 -7.125000 0.000000 0.000000 25.736742 37.793502 52.625488 -146.811258 37.185398 -107.469943 -3.344572 0.374757 -24.546265 7.125000 0.000000 0.000000 
4.526936 12.047669 7.794359 -2.135804 -3.015183 55.964652 -17.133046 1.289677 -17.730525 16.245588 21.230978 78.789206 -0.306082 4.721219 12.811700 0.028000 1.079700 2.968000 14.791976 -0.874702 -19.722373 -17.674164 -21.116665 83.212572 0.131798 -1.599407 -1.611221 -0.209100 2.944100 -8.123200 0.354036 -0.440878 -3.248191 -0.713135 -0.187523 -8.499211 15.204937 -6.268903 -13.949932 5.912800 -2.781700 3.119700 -36.988406 -40.329923 51.409516 145.888216 -38.012585 -107.345001 2.307901 -0.376940 -9.127678 -7.125000 0.000000 0.000000 26.488064 38.359789 52.551955 -147.020590 36.893876 -107.623404 -3.365667 0.412547 -24.424941 7.125000 0.000000 0.000000 
4.527445 12.051639 7.809119 -2.122515 -3.064684 55.834255 -17.102647 1.423167 -18.151460 16.612472 21.288882 79.829408 -0.308736 4.632652 12.642373 0.030000 1.117500 3.072100 14.514699 -1.134422 -20.086001 -18.035161 -21.131200 84.232878 0.106974 -1.293190 -1.717702 -0.222900 3.038900 -8.387100 0.354922 -0.468965 -3.295839 -0.656660 -0.197763 -8.697875 15.145084 -6.275243 -13.902153 5.863500 -2.780500 3.206800 -37.174870 -40.734551 51.202324 146.178111 -37.693033 -107.528888 2.332915 -0.400798 -8.571420 -7.125000 0.000000 0.000000 27.216996 38.926137 52.505895 -147.215489 36.611341 -107.766672 -3.383657 0.448597 -24.368747 7.125000 0.000000 0.000000 
4.527750 12.056016 7.824694 -2.109778 -3.109736 55.711683 -17.052006 1.597069 -18.564533 16.968072 21.336512 80.839826 -0.301549 4.479174 12.516378 0.031700 1.148600 3.157800 14.236300 -1.407419 -20.423950 -18.389090 -21.137773 85.233525 0.081590 -0.977317 -1.818246 -0.239500 3.149400 -8.694900 0.356599 -0.493306 -3.345915 -0.595646 -0.206501 -8.913690 15.088688 -6.281113 -13.855089 5.816800 -2.778700 3.297000 -37.290587 -41.156952 50.958895 146.441443 -37.394679 -107.692419 2.356468 -0.418660 -8.030876 -7.125000 0.000000 0.000000 27.933821 39.493551 52.492678 -147.398085 36.335348 -107.901615 -3.398302 0.484151 -24.357361 7.125000 0.000000 0.000000 
4.528055 12.060495 7.841490 -2.100456 -3.138775 55.602503 -16.967717 1.810450 -18.970132 17.311547 21.373575 81.817006 -0.286344 4.269514 12.426173 0.033300 1.178200 3.239200 13.967111 -1.701540 -20.738392 -18.734312 -21.137032 86.209507 0.055840 -0.651201 -1.908524 -0.259500 3.277400 -9.051900 0.359999 -0.514883 -3.397895 -0.534512 -0.214857 -9.138173 15.036494 -6.290591 -13.801717 5.772100 -2.777300 3.396800 -37.335664 -41.601034 50.674095 146.678888 -37.118215 -107.835872 2.378587 -0.430515 -7.536419 -7.125000 0.000000 0.000000 28.636179 40.063793 52.483381 -147.568564 36.065899 -108.028636 -3.409953 0.518385 -24.356280 7.125000 0.000000 0.000000 
4.528055 12.065076 7.860119 -2.085348 -3.150210 55.508908 -16.850551 2.062724 -19.366943 17.641676 21.400531 82.757260 -0.264726 4.015660 12.368652 0.034100 1.192300 3.278100 13.703206 -2.026753 -21.028003 -19.069974 -21.128791 87.158824 0.029686 -0.314253 -1.994902 -0.282300 3.417000 -9.442000 0.365639 -0.537713 -3.453099 -0.470001 -0.224516 -9.371282 14.963765 -6.307121 -13.717686 5.713000 -2.778300 3.518600 -37.311765 -42.065448 50.346795 146.884589 -36.868987 -107.956152 2.399295 -0.437303 -7.120951 -7.125000 0.000000 0.000000 29.313556 40.631681 52.457920 -147.719092 35.811652 -108.142933 -3.418286 0.551453 -24.246396 7.125000 0.000000 0.000000 
4.528259 12.069351 7.877729 -2.073749 -3.148604 55.432186 -16.714812 2.325119 -19.756529 17.965354 21.420192 83.677702 -0.243551 3.772447 12.323144 0.034800 1.203700 3.309500 13.439277 -2.374762 -21.311181 -19.402987 -21.113952 88.101694 0.003121 0.036413 -2.069367 -0.307000 3.562000 -9.847600 0.372243 -0.557514 -3.508779 -0.410202 -0.233569 -9.599856 14.877902 -6.329387 -13.615358 5.644000 -2.780900 3.657400 -37.252374 -42.545265 49.995954 147.070422 -36.636317 -108.062872 2.418584 -0.441730 -6.778012 -7.125000 0.000000 0.000000 29.985276 41.205870 52.385603 -147.858237 35.564080 -108.249804 -3.425778 0.582567 -24.173187 7.125000 0.000000 0.000000 
4.528463 12.073525 7.894525 -2.064112 -3.136283 55.374884 -16.563174 2.597824 -20.140160 18.283092 21.432859 84.579289 -0.225371 3.553857 12.272273 0.034700 1.202000 3.304800 13.171679 -2.746703 -21.589934 -19.734618 -21.092566 89.041463 -0.023967 0.400438 -2.141914 -0.332200 3.704400 -10.246400 0.379646 -0.575147 -3.565225 -0.353233 -0.242336 -9.827137 14.790567 -6.356124 -13.512066 5.572800 -2.785200 3.802300 -37.165073 -43.038520 49.594283 147.246814 -36.410384 -108.163746 2.436475 -0.445848 -6.552333 -7.125000 0.000000 0.000000 30.645629 41.783808 52.240375 -147.975380 35.334986 -108.342105 -3.433327 0.612308 -24.076394 7.125000 0.000000 0.000000 
4.528666 12.077698 7.910202 -2.062576 -3.117622 55.332774 -16.394812 2.890174 -20.514955 18.596010 21.438433 85.465249 -0.210712 3.367273 12.210598 0.034700 1.202900 3.307200 12.899828 -3.135103 -21.862241 -20.066691 -21.064807 89.983503 -0.051166 0.774627 -2.212539 -0.358600 3.846800 -10.646200 0.387010 -0.587253 -3.620998 -0.303873 -0.249280 -10.051147 14.697769 -6.387753 -13.407751 5.495800 -2.791600 3.953600 -37.047802 -43.546093 49.111510 147.416298 -36.188975 -108.261411 2.452866 -0.450361 -6.440757 -7.125000 0.000000 0.000000 31.285344 42.361899 52.042438 -148.075956 35.120295 -108.422557 -3.441537 0.639223 -24.019332 7.125000 0.000000 0.000000 
4.528972 12.082076 7.924657 -2.066904 -3.098969 55.304646 -16.216629 3.202175 -20.879603 18.903789 21.437427 86.335464 -0.199984 3.212236 12.132205 0.034500 1.199300 3.297500 12.616241 -3.535459 -22.126735 -20.399617 -21.030534 90.929790 -0.078985 1.163816 -2.288284 -0.382500 3.971900 -10.997500 0.393842 -0.594709 -3.675564 -0.259377 -0.254411 -10.271949 14.606037 -6.422955 -13.306761 5.417400 -2.799200 4.108700 -36.899156 -44.067091 48.508072 147.588548 -35.964645 -108.360122 2.467541 -0.451604 -6.473015 -7.125000 0.000000 0.000000 31.893506 42.943065 51.769523 -148.155682 34.925529 -108.489130 -3.449812 0.663786 -23.995866 7.125000 0.000000 0.000000 
4.529277 12.086656 7.938399 -2.077228 -3.083093 55.289204 -16.031721 3.533806 -21.229492 19.205206 21.430143 87.187617 -0.193428 3.085781 12.022719 0.034500 1.199600 3.298100 12.321091 -3.938175 -22.379091 -20.732837 -20.990114 91.878712 -0.107079 1.562929 -2.375535 -0.406800 4.094700 -11.343200 0.399797 -0.596891 -3.728473 -0.220412 -0.257094 -10.488789 14.514799 -6.459277 -13.209081 5.337600 -2.806900 4.266700 -36.727857 -44.593883 47.783141 147.761508 -35.740411 -108.459097 2.480600 -0.450225 -6.600725 -7.125000 0.000000 0.000000 32.455700 43.524691 51.423840 -148.208760 34.757903 -108.538253 -3.457374 0.685098 -23.965422 7.125000 0.000000 0.000000 
